<svg xmlns="http://www.w3.org/2000/svg" width="1440" height="1440" viewBox="0 0 1440 1440">
  <g fill="none" fill-rule="evenodd" stroke-linecap="round">
    <path stroke="#FFF" stroke-dasharray="1.017 26.737" stroke-width="3" d="M720,1259 C1017.68148,1259 1259,1017.68148 1259,720 C1259,422.31852 1017.68148,181 720,181 C422.31852,181 181,422.31852 181,720 C181,1017.68148 422.31852,1259 720,1259 Z"/>
    <path stroke="#FFF" stroke-dasharray="1.017 25.171" stroke-width="3" d="M720,1228.49057 C1000.83159,1228.49057 1228.49057,1000.83159 1228.49057,720 C1228.49057,439.168415 1000.83159,211.509434 720,211.509434 C439.168415,211.509434 211.509434,439.168415 211.509434,720 C211.509434,1000.83159 439.168415,1228.49057 720,1228.49057 Z"/>
    <path stroke="#FFF" stroke-dasharray="1.017 23.604" stroke-width="3" d="M720,1197.98113 C983.98169,1197.98113 1197.98113,983.98169 1197.98113,720 C1197.98113,456.01831 983.98169,242.018868 720,242.018868 C456.01831,242.018868 242.018868,456.01831 242.018868,720 C242.018868,983.98169 456.01831,1197.98113 720,1197.98113 Z"/>
    <path stroke="#FFF" stroke-dasharray="1.017 22.038" stroke-width="3" d="M720,1167.4717 C967.131795,1167.4717 1167.4717,967.131795 1167.4717,720 C1167.4717,472.868205 967.131795,272.528302 720,272.528302 C472.868205,272.528302 272.528302,472.868205 272.528302,720 C272.528302,967.131795 472.868205,1167.4717 720,1167.4717 Z"/>
    <path stroke="#FFF" stroke-dasharray="1.017 20.472" stroke-width="3" d="M720,1136.96226 C950.2819,1136.96226 1136.96226,950.2819 1136.96226,720 C1136.96226,489.7181 950.2819,303.037736 720,303.037736 C489.7181,303.037736 303.037736,489.7181 303.037736,720 C303.037736,950.2819 489.7181,1136.96226 720,1136.96226 Z"/>
    <path stroke="#FFF" stroke-dasharray="1.017 18.906" stroke-width="3" d="M720,1106.45283 C933.432005,1106.45283 1106.45283,933.432005 1106.45283,720 C1106.45283,506.567995 933.432005,333.54717 720,333.54717 C506.567995,333.54717 333.54717,506.567995 333.54717,720 C333.54717,933.432005 506.567995,1106.45283 720,1106.45283 Z"/>
    <path stroke="#FFF" stroke-dasharray="1.017 17.34" stroke-width="3" d="M720,1075.9434 C916.58211,1075.9434 1075.9434,916.58211 1075.9434,720 C1075.9434,523.41789 916.58211,364.056604 720,364.056604 C523.41789,364.056604 364.056604,523.41789 364.056604,720 C364.056604,916.58211 523.41789,1075.9434 720,1075.9434 Z"/>
  </g>
</svg>
