<svg xmlns="http://www.w3.org/2000/svg" viewBox="0 0 89.48 80.08"><defs><style>.cls-1{fill:#aeadad;}</style></defs><g id="Laag_2" data-name="Laag 2"><g id="Laag_1-2" data-name="Laag 1"><path class="cls-1" d="M0,39.73C0,33.11.08,26.5,0,19.89c0-3.93,1.57-7,5.28-8,4.11-1,5.34-3.26,4.67-7C9.22.75,11.53.35,14.84.45,17.89.54,20.26.35,20,4.72c-.31,5.24,3.43,7.51,8.37,5.61,2.5-.95,1.07-3.1,1.45-4.69S28.81,1.41,31,.85A13.84,13.84,0,0,1,38.81,1c1.95.72,1.06,3.62.86,5.46-.5,4.61,2.52,3.91,5.32,4.06,3,.16,4.95-.16,4.79-4.1-.22-5.45,3-7.52,8.23-5.8,2.62.87,1.48,3,1.56,4.59.22,4.56,5.12,7.44,8.95,5,1.92-1.21,1.16-3.39,1-5C68.91.87,71.1.41,74.64.42c3.37,0,5.4.41,4.91,4.5-.41,3.32-.36,5.93,4.38,7.17,4.13,1.07,5.36,6,5.43,10.26.17,11.9.15,23.8,0,35.7-.05,4.62-1.37,9.22-6.13,10.83-3.87,1.31-4.18,3.66-3.72,6.72.63,4.19-1.7,4.45-5,4.4-3.1-.06-5.39,0-5.12-4.31.32-5.18-3.54-7.53-8.39-5.56-2.39,1-1.52,3.16-1.35,4.7.47,4.2-1.16,5.23-5.24,5.25S49.12,78.71,49.69,75s-.67-5.16-4.78-5.13-5.89,1-5.16,5.23c.69,3.94-1,5.08-4.89,5-3.58-.09-5.66-.58-5.13-4.83.21-1.61,1.08-4.27-1-4.85a14.65,14.65,0,0,0-7.8,0c-2,.59-1.16,3.28-1,4.9.57,4.37-1.72,4.7-5.2,4.74S9.26,79.5,10,75.49c.56-3.26-.2-5.22-4-6.24S0,64.88,0,60.55C.07,53.61,0,46.67,0,39.73ZM44.38,60.07c10.41,0,20.83-.1,31.24.07,3.07,0,4-1,3.93-4q-.24-16.11,0-32.22c0-2.85-1-3.65-3.72-3.64q-31,.13-62,0c-3.07,0-4,1-3.92,4,.15,10.57.18,21.14,0,31.71-.06,3.3,1,4.21,4.23,4.16C24.2,60,34.29,60.07,44.38,60.07Z"/></g></g></svg>