<svg xmlns="http://www.w3.org/2000/svg" viewBox="0 0 153.81 160.88"><g id="Laag_2" data-name="Laag 2"><g id="Laag_1-2" data-name="Laag 1"><path d="M14.51,128.45A81.2,81.2,0,0,1,0,84.34C-1,45.56,22.77,26.87,43.62,14.92A19.27,19.27,0,0,1,62.79,48.36c-19,10.89-24.66,19-24.23,34.92A41.77,41.77,0,0,0,52,113.09a34.93,34.93,0,0,0,26.53,9.14c22.91-1.7,37.32-17,36.72-38.88a19.27,19.27,0,1,1,38.53-1.06c1.16,42.22-29.29,75.19-72.4,78.38a73.57,73.57,0,0,1-55.22-19A77.59,77.59,0,0,1,14.51,128.45Z"/><path d="M82.84,41c-2.07,1.44-4.31,2.74-6.79-.82-2.18-3.11-.49-5.22,1.57-6.65s7.68-2.4,9.27-.12S84.9,39.57,82.84,41Z"/><path d="M64.17,9c-2.06,1.44-4.3,2.74-6.79-.82C55.2,5,56.89,2.92,59,1.48s7.67-2.4,9.27-.11S66.23,7.52,64.17,9Z"/><path d="M84.65,27.55c-2.42,1.69-5,3.21-7.94-1-2.55-3.64-.58-6.1,1.84-7.79s9-2.8,10.85-.13S87.07,25.87,84.65,27.55Z"/><path d="M77.43,15.61c-2.42,1.68-5,3.21-8-1-2.54-3.64-.57-6.1,1.85-7.79s9-2.8,10.84-.13S79.84,13.93,77.43,15.61Z"/></g></g></svg>