<svg xmlns="http://www.w3.org/2000/svg" viewBox="0 0 62.65 62.65"><g id="Laag_2" data-name="Laag 2"><g id="Laag_1-2" data-name="Laag 1"><path d="M31.48,62.65C14.51,63,.37,49,0,31.54-.34,14.48,13.8.22,31.3,0c17-.21,31.08,13.81,31.35,31.23C62.91,48.22,48.92,62.33,31.48,62.65ZM31.25,6.26C17.09,6.55,6,17.71,6.27,31.41c.28,14.16,11.44,25.25,25.14,25,14.17-.28,25.25-11.43,25-25.14C56.11,17.07,45,6,31.25,6.26Z"/><path d="M21.91,31.07c0-3.73-.15-7.46.07-11.18.08-1.3.78-3.17,1.75-3.66s2.91,0,4,.74c5.76,3.66,11.39,7.52,17.06,11.32,2.85,1.91,2.93,4.11.11,6C39.11,38.25,33.25,42.13,27.39,46c-2.86,1.89-5.35.68-5.45-2.74C21.82,39.19,21.91,35.13,21.91,31.07Zm16.39.21-9.83-6.54v13.1Z"/></g></g></svg>