<svg xmlns="http://www.w3.org/2000/svg" viewBox="0 0 79.67 79.66"><defs><style>.cls-1{fill:#afaeae;}.cls-2{fill:#fefefe;}.cls-3{fill:#aeadad;}</style></defs><g id="Laag_2" data-name="Laag 2"><g id="Laag_1-2" data-name="Laag 1"><path class="cls-1" d="M58.42,0C62.23,0,66,0,69.84.06c6,.15,9.68,3.69,9.78,9.55.13,7.77,0,15.55,0,23.32,0,3.25-1.42,5.68-3.61,7.86C64.35,52.48,52.7,64.23,40.93,75.86c-5.2,5.14-9.89,5-15.09-.11q-11.11-11-22.11-22.11c-4.92-5-5-9.76-.09-14.73C15.4,27,27.27,15.27,39.07,3.44A10.74,10.74,0,0,1,47.5,0C51.14.15,54.78,0,58.42,0ZM57,10C53.28,11,48.28,8.05,44.14,12.3Q28.89,27.95,13.23,43.19c-2.62,2.54-2.19,4.09.2,6.37C19.18,55,24.84,60.63,30.27,66.41c2.49,2.65,4.05,2.24,6.38-.14,8.2-8.42,16.24-17,25-24.84,6.2-5.52,8.78-11.41,8.25-19.76C69.16,10,69.71,10,57,10Z"/><path class="cls-2" d="M54.71,29.69c3.39.78,5.43.1,5.18-4.32-.19-3.47-.07-5.83-4.82-5.62-3.86.17-5.58.78-5.35,5.11C49.91,28.39,50.25,30.76,54.71,29.69Z"/><path class="cls-3" d="M54.71,29.69c-4.46,1.07-4.8-1.3-5-4.83-.23-4.33,1.49-4.94,5.35-5.11,4.75-.21,4.63,2.15,4.82,5.62C60.14,29.79,58.1,30.47,54.71,29.69Z"/></g></g></svg>