<svg xmlns="http://www.w3.org/2000/svg" viewBox="0 0 77.08 73.95"><defs><style>.cls-1{fill:#afafaf;}</style></defs><g id="Laag_2" data-name="Laag 2"><g id="Laag_1-2" data-name="Laag 1"><path class="cls-1" d="M18.9,73.82c-4.23.08-7.24-3.49-6.48-7.91.85-4.86,1.63-9.75,2.91-14.5a5.65,5.65,0,0,0-2-6.48c-3.36-2.9-6.57-6-9.85-9C1,33.72-.83,31.23.38,27.71c1.12-3.24,3.69-4.26,6.93-4.54,3.92-.33,7.81-1.52,11.7-1.49,4.55,0,6.75-1.91,8.17-6,1.33-3.88,3.41-7.49,5.07-11.25A6.85,6.85,0,0,1,38.82,0c2.8,0,4.85,1.7,6,4.42C46,7.31,47.86,10,48.55,13c1.71,7.37,6.91,9,13.38,9.27,2.94.12,5.86.69,8.8,1a6.88,6.88,0,0,1,5.92,4.61c1.12,2.75-.08,5.19-2.11,7.13-3.7,3.52-7.42,7-11.25,10.39-1.85,1.63-2.23,3.3-1.66,5.68,1.11,4.64,1.67,9.41,2.85,14a6.73,6.73,0,0,1-2.39,7.46c-2.49,2.09-5.22,1.59-7.83.15-4.18-2.31-8.43-4.5-12.45-7.07-2.44-1.56-4.33-1.41-6.71.09-3.74,2.38-7.71,4.41-11.59,6.56C22.07,73.08,20.66,74,18.9,73.82Zm4.87-13.75C28,59,31.18,56.79,34.29,54.84s5.4-1.83,8.51,0,6.84,6,9.7,4.27c2-1.22-.42-6.71-1.37-10.06-1.23-4.3.15-6.74,3.44-9.16,2.7-2,4.94-4.63,7.53-7.11-4.39-1.84-8.57-1.56-12.59-2.13a6.38,6.38,0,0,1-5.68-4.45c-1.48-3.57-3.26-7-5.32-11.41-2.07,4.42-3.85,7.88-5.33,11.47-1.1,2.7-2.7,3.91-5.72,4.41-4,.67-8.38,0-12.52,2.36,3,2.68,5.59,5.2,8.37,7.5,2.49,2,3.86,4,2.7,7.61S24.53,55.76,23.77,60.07Z"/></g></g></svg>