<svg xmlns="http://www.w3.org/2000/svg" viewBox="0 0 300.9 358"><g id="Laag_2" data-name="Laag 2"><g id="Laag_1-2" data-name="Laag 1"><g id="Laag_2-2" data-name="Laag 2"><g id="Laag_1-2-2" data-name="Laag 1-2"><path d="M245.81,56.41H55.09A55.15,55.15,0,0,0,0,111.5V302.93A55.16,55.16,0,0,0,55.09,358H245.81a55.16,55.16,0,0,0,55.09-55.1V111.5A55.15,55.15,0,0,0,245.81,56.41ZM263.9,302.93A18.11,18.11,0,0,1,245.81,321H55.09A18.12,18.12,0,0,1,37,302.93V111.5A18.13,18.13,0,0,1,55.09,93.41H245.81A18.1,18.1,0,0,1,263.9,111.5Z"/><path d="M124.52,47.47c6.8-6.11,16.12-9.47,26.23-9.47s19.43,3.36,26.24,9.47a28.19,28.19,0,0,1,6.69,8.89H223C218.05,24.51,187.6,0,150.75,0S83.45,24.51,78.48,56.36h39.34A28.23,28.23,0,0,1,124.52,47.47Z"/></g></g></g></g></svg>