<svg xmlns="http://www.w3.org/2000/svg" viewBox="0 0 79.22 79.41"><defs><style>.cls-1{fill:#afafaf;}.cls-2{fill:#aeadad;}</style></defs><g id="Laag_2" data-name="Laag 2"><g id="Laag_1-2" data-name="Laag 1"><path class="cls-1" d="M39.48,0A39.71,39.71,0,1,1,0,39.83,39.71,39.71,0,0,1,39.48,0ZM9.91,39.75A29.7,29.7,0,1,0,39.81,9.93,29.84,29.84,0,0,0,9.91,39.75Z"/><path class="cls-2" d="M44.55,47.52c0,2,0,3.95,0,5.93,0,6-2.13,7.55-8,6.1a2.08,2.08,0,0,1-1.84-2.39c0-6.58-.08-13.17,0-19.76.06-4.36,3.51-2.31,5.53-2.57s4.51-.78,4.35,2.81C44.44,40.92,44.55,44.22,44.55,47.52Z"/><path class="cls-2" d="M44.44,25.21C45.67,30.48,42,29.49,39,29.86c-4.81.56-4-2.46-4.38-5.46-.56-5,2.49-4.35,5.7-4.64C45,19.34,44.87,22.06,44.44,25.21Z"/></g></g></svg>