<svg xmlns="http://www.w3.org/2000/svg" viewBox="0 0 66.4 63.2"><defs><style>.cls-1{fill:#f59f35;}</style></defs><g id="Laag_2" data-name="Laag 2"><g id="Laag_1-2" data-name="Laag 1"><path class="cls-1" d="M53.71,63.2C47.49,59.74,42.13,57,37,53.82c-2.67-1.63-4.71-1.86-7.5-.09-5.2,3.28-10.72,6-16.92,9.47,1.34-6.56,2.41-12.14,3.64-17.69.81-3.62.35-6.45-2.85-9C8.91,33,4.92,28.84,0,24.29c7.25-1,13.48-2,19.75-2.62,2.84-.3,4.29-1.64,5.37-4.16,2.38-5.56,5-11,8-17.51,2.67,5.71,5.35,10.51,7.16,15.61,1.71,4.82,5,6.23,9.56,6.58,5.18.4,10.32,1.25,16.54,2-4.76,4.41-8.61,8.42-12.93,11.83-3.65,2.87-4.23,6-3.12,10.24C51.7,51.48,52.47,56.82,53.71,63.2Z"/></g></g></svg>